<svg xmlns="http://www.w3.org/2000/svg" width="27" height="72" viewBox="0 0 27 72">
  <metadata><?xpacket begin="﻿" id="W5M0MpCehiHzreSzNTczkc9d"?>
<x:xmpmeta xmlns:x="adobe:ns:meta/" x:xmptk="Adobe XMP Core 5.6-c138 79.159824, 2016/09/14-01:09:01        ">
   <rdf:RDF xmlns:rdf="http://www.w3.org/1999/02/22-rdf-syntax-ns#">
      <rdf:Description rdf:about=""/>
   </rdf:RDF>
</x:xmpmeta>    
<?xpacket end="w"?></metadata>
<defs>
    <style>
      .cls-1 {
        fill: #fff;
        fill-rule: evenodd;
      }
    </style>
  </defs>
  <path id="Forma_1" data-name="Forma 1" class="cls-1" d="M972.254,865.189c-2.376-2.78-5.994-4.19-10.754-4.19s-8.378,1.41-10.754,4.19A12.031,12.031,0,0,0,948,872.963V892.7a12.034,12.034,0,0,0,2.746,7.774c2.376,2.78,5.994,4.189,10.754,4.189s8.378-1.409,10.754-4.189A12.04,12.04,0,0,0,975,892.7V872.963A12.037,12.037,0,0,0,972.254,865.189ZM961.5,876.21a1.789,1.789,0,0,1-1.789-1.784V870.6a1.789,1.789,0,0,1,3.577,0v3.823A1.788,1.788,0,0,1,961.5,876.21ZM973.588,892.7c0,1.762-.583,10.555-12.088,10.555s-12.088-8.793-12.088-10.555V872.963c0-1.726.56-10.189,11.382-10.543v5.07a3.2,3.2,0,0,0-2.5,3.113v3.823a3.2,3.2,0,0,0,2.5,3.113v5.787a0.706,0.706,0,0,0,1.412,0v-5.787a3.2,3.2,0,0,0,2.5-3.113V870.6a3.2,3.2,0,0,0-2.5-3.113v-5.07c10.821,0.354,11.382,8.817,11.382,10.543V892.7Zm0.379,26.783a0.892,0.892,0,0,0-1.273,0L961.5,930.823l-11.215-11.344a0.892,0.892,0,0,0-1.273,0,0.919,0.919,0,0,0,0,1.288l11.83,11.966a0.872,0.872,0,0,0,.636.267,0.911,0.911,0,0,0,.637-0.267l11.829-11.966A0.9,0.9,0,0,0,973.967,919.479Z" transform="translate(-948 -861)"/>
</svg>